<?xml version="1.0" encoding="utf-8"?>
<!-- Generator: Adobe Illustrator 25.2.3, SVG Export Plug-In . SVG Version: 6.00 Build 0)  -->
<svg version="1.1" id="Capa_1" xmlns="http://www.w3.org/2000/svg" xmlns:xlink="http://www.w3.org/1999/xlink" x="0px" y="0px"
	 viewBox="0 0 534.22 240.75" style="enable-background:new 0 0 534.22 240.75;" xml:space="preserve">
<style type="text/css">
	.st0{fill:#0046F0;}
	.st1{fill:#FFFFFF;}
</style>
<g>
	<ellipse class="st0" cx="267.11" cy="120.37" rx="267.11" ry="120.37"/>
	<polygon class="st1" points="266.8,22.44 277.09,73.03 307.07,31 295.9,81.4 340.38,55.2 309.68,96.7 360.97,90.86 316.04,116.28 
		365.27,131.81 313.88,136.75 352.55,170.96 303.59,154.58 325,201.56 286.94,166.68 287.39,218.31 266.8,170.96 246.21,218.31 
		246.66,166.68 208.6,201.56 230.01,154.58 181.05,170.96 219.72,136.75 168.33,131.81 217.56,116.28 172.63,90.86 223.93,96.7 
		193.22,55.2 237.7,81.4 226.53,31 256.51,73.03 	"/>
</g>
</svg>
